<?xml version="1.0" standalone="no"?>
<!DOCTYPE svg PUBLIC "-//W3C//DTD SVG 20010904//EN"
 "http://www.w3.org/TR/2001/REC-SVG-20010904/DTD/svg10.dtd">
<svg version="1.0" xmlns="http://www.w3.org/2000/svg"
 width="6058.000000pt" height="1803.000000pt" viewBox="0 0 6058.000000 1803.000000"
 preserveAspectRatio="xMidYMid meet">

<g transform="translate(0.000000,1803.000000) scale(0.100000,-0.100000)"
fill="#000000" stroke="none">
<path d="M6050 14679 c-438 -20 -890 -45 -955 -54 -22 -3 -96 -10 -165 -15
-192 -15 -535 -54 -740 -84 -169 -25 -294 -45 -315 -50 -11 -3 -81 -17 -155
-31 -131 -25 -269 -55 -340 -75 -127 -34 -368 -111 -425 -135 -342 -147 -505
-276 -562 -446 -17 -50 -18 -98 -18 -624 0 -637 -4 -600 73 -714 29 -42 38
-67 40 -101 0 -24 9 -131 18 -237 19 -234 15 -815 -9 -1093 -35 -406 -83 -737
-186 -1285 -25 -136 -142 -692 -186 -890 -26 -113 -98 -440 -110 -500 -7 -33
-38 -179 -70 -325 -144 -676 -229 -1181 -274 -1625 -6 -55 -13 -122 -15 -150
-41 -405 -41 -1066 -1 -1380 18 -143 29 -208 42 -260 107 -429 439 -848 896
-1131 181 -112 451 -239 602 -281 265 -75 354 -91 605 -105 107 -6 196 -12
198 -14 2 -1 -9 -22 -24 -46 -15 -23 -45 -80 -65 -125 -145 -313 -155 -624
-32 -958 86 -231 269 -461 474 -597 124 -81 130 -84 221 -122 213 -88 477
-127 654 -96 114 21 169 32 209 45 22 7 73 23 113 35 93 28 246 104 372 184
215 138 534 434 789 731 51 61 107 125 123 142 l28 33 2993 0 2992 0 115 -137
c204 -243 501 -531 715 -695 69 -52 247 -162 315 -194 176 -84 472 -154 643
-154 137 0 341 40 462 90 190 79 301 153 440 294 188 189 289 372 352 636 26
106 25 416 0 510 -31 111 -57 181 -107 285 -27 55 -48 100 -47 101 1 1 74 37
162 81 295 147 481 272 649 433 106 102 166 179 215 275 52 104 83 238 63 279
-6 11 -45 127 -88 256 -42 129 -105 321 -139 425 -255 768 -827 2512 -846
2575 -21 72 -49 130 -95 201 -48 72 -182 212 -266 277 -121 93 -324 208 -533
302 -109 49 -457 172 -563 200 -20 5 -62 16 -92 24 -502 133 -869 195 -1590
266 -313 31 -955 47 -1224 31 -109 -7 -202 -9 -207 -4 -11 11 -77 302 -144
628 -7 39 -32 160 -55 270 -23 110 -48 236 -55 280 -8 44 -24 132 -35 195 -24
135 -64 389 -80 510 -67 517 -98 1139 -71 1455 6 61 15 177 21 259 12 146 13
150 47 197 74 104 73 93 73 711 0 328 -5 570 -10 596 -42 179 -228 338 -545
465 -60 24 -144 55 -185 70 -117 40 -403 114 -569 147 -25 5 -57 12 -71 15
-48 10 -386 65 -460 75 -181 24 -323 41 -545 65 -22 3 -94 9 -160 15 -66 5
-142 12 -170 15 -120 13 -393 28 -1005 55 -258 12 -838 11 -1110 -1z m1250
-430 c157 -6 292 -10 300 -10 34 -1 479 -30 525 -34 28 -3 104 -9 170 -15 66
-6 138 -13 160 -15 22 -3 83 -10 135 -15 292 -31 718 -94 905 -135 39 -9 102
-22 140 -30 404 -81 815 -232 815 -299 0 -58 -228 -171 -505 -251 -33 -9 -80
-23 -105 -30 -68 -20 -252 -62 -370 -85 -58 -11 -127 -25 -155 -30 -52 -11
-132 -24 -245 -41 -36 -5 -81 -11 -100 -14 -999 -152 -2514 -193 -3755 -100
-369 27 -790 72 -935 100 -9 2 -43 6 -75 10 -33 3 -94 12 -135 20 -41 7 -95
16 -120 20 -25 3 -51 9 -58 13 -20 13 360 103 543 128 28 3 59 8 70 10 290 57
1061 83 1585 54 587 -31 586 -31 635 -19 65 16 139 87 155 147 26 99 -21 202
-112 245 -56 26 -113 31 -698 57 -512 23 -1214 5 -1510 -40 -296 -44 -451 -73
-645 -122 -44 -11 -98 -24 -120 -29 -116 -28 -427 -127 -605 -193 -52 -20
-101 -36 -108 -36 -29 0 -218 91 -257 123 l-30 25 35 37 c91 96 421 217 815
300 39 8 102 22 140 30 39 8 95 19 125 24 30 5 107 19 170 30 63 11 151 25
195 31 217 29 438 55 535 65 30 2 100 9 155 15 254 24 669 51 935 59 365 12
1076 12 1400 0z m-4357 -1124 c60 -30 122 -55 138 -55 15 0 40 -5 56 -11 32
-13 152 -48 213 -63 9 -2 72 -18 140 -34 166 -41 227 -53 505 -101 59 -11 177
-28 245 -37 19 -3 67 -9 105 -15 184 -25 510 -59 760 -79 72 -6 155 -12 185
-15 30 -2 141 -9 245 -15 105 -5 224 -13 265 -17 100 -10 1517 -10 1645 0 55
4 179 12 275 17 96 6 207 12 245 15 575 44 998 93 1350 155 61 11 126 22 145
25 19 4 53 10 75 15 22 5 85 19 140 31 255 55 450 114 653 195 62 25 115 44
117 42 3 -2 5 -118 5 -257 l1 -254 -33 -34 c-18 -19 -71 -54 -118 -78 -79 -39
-302 -121 -395 -144 -22 -5 -94 -24 -160 -41 -118 -30 -347 -79 -475 -100
-254 -43 -385 -62 -545 -80 -49 -6 -101 -12 -115 -15 -64 -12 -501 -50 -755
-65 -93 -5 -255 -15 -360 -22 -256 -17 -1471 -17 -1735 0 -107 7 -267 17 -355
22 -357 22 -499 35 -875 80 -330 40 -769 115 -990 170 -19 5 -62 16 -95 24
-33 8 -78 19 -100 25 -121 34 -152 43 -170 51 -11 5 -54 21 -95 36 -111 40
-211 91 -247 127 l-33 31 0 263 c0 237 2 263 16 263 9 0 66 -25 127 -55z m112
-1058 c132 -45 308 -99 373 -112 9 -2 37 -8 62 -14 107 -27 277 -62 425 -87
140 -24 261 -42 455 -69 128 -18 302 -37 550 -60 884 -83 1870 -101 2735 -50
446 26 1023 78 1235 111 19 2 67 9 105 14 174 24 348 53 510 84 136 27 166 33
295 66 69 17 144 36 166 41 23 6 106 33 185 60 79 28 151 53 160 56 15 4 16
-23 11 -336 -4 -294 6 -665 23 -811 2 -19 9 -89 15 -155 10 -105 23 -219 60
-505 15 -115 38 -251 87 -525 70 -384 107 -570 189 -939 31 -139 41 -202 33
-206 -6 -4 -54 -10 -107 -14 -53 -3 -131 -10 -172 -16 -41 -5 -133 -16 -205
-25 -71 -9 -152 -20 -180 -25 -27 -5 -72 -12 -100 -15 -27 -4 -72 -11 -100
-16 -27 -5 -102 -18 -165 -30 -63 -12 -119 -22 -125 -24 -5 -1 -28 -5 -50 -9
-57 -11 -405 -96 -435 -106 -14 -5 -52 -16 -85 -25 -405 -115 -814 -303 -1050
-483 l-40 -30 -60 52 c-272 234 -568 397 -880 485 -175 49 -389 57 -563 22
-458 -93 -957 -412 -1247 -796 -112 -149 -214 -345 -250 -481 -9 -33 -25 -93
-36 -134 -142 -535 172 -1091 701 -1244 193 -56 460 -46 635 23 143 57 245
122 351 225 44 42 80 76 81 76 0 0 27 -25 59 -55 84 -81 177 -141 327 -210 20
-9 37 -21 37 -26 0 -15 -430 -1303 -438 -1311 -4 -4 -86 72 -182 169 -382 384
-672 583 -968 664 -177 49 -213 54 -387 54 -184 0 -237 -8 -400 -58 -321 -98
-610 -337 -756 -626 -146 -287 -182 -596 -104 -876 21 -78 65 -197 76 -209 13
-15 11 -46 -3 -46 -67 0 -299 24 -358 36 -375 80 -688 233 -982 481 -207 175
-387 434 -444 638 -52 186 -80 698 -64 1140 15 420 51 741 145 1315 28 171
107 576 156 800 5 25 43 198 84 385 40 187 83 383 94 435 20 88 83 385 116
545 134 643 225 1273 266 1835 15 198 18 744 6 894 -8 93 -7 98 10 93 10 -3
63 -21 118 -40z m9125 -3837 c200 -8 479 -28 650 -46 193 -20 398 -47 535 -69
55 -9 123 -20 150 -25 259 -42 793 -178 940 -240 11 -4 52 -20 90 -34 471
-170 795 -413 822 -614 6 -48 -19 -131 -57 -187 -39 -57 -163 -172 -245 -226
-177 -118 -514 -264 -805 -349 -41 -12 -86 -26 -100 -30 -23 -9 -344 -86 -450
-109 -25 -6 -99 -20 -165 -31 -66 -11 -140 -25 -165 -30 -25 -5 -70 -12 -100
-16 -30 -4 -64 -8 -75 -10 -616 -91 -1364 -121 -2040 -83 -513 28 -733 49
-1080 99 -105 15 -357 57 -393 65 -31 7 -20 22 20 28 18 2 89 16 158 30 69 14
139 28 155 30 17 3 73 12 125 21 187 30 448 61 650 76 74 5 194 14 265 20 72
5 243 12 380 16 138 3 266 10 285 16 120 36 182 147 150 268 -15 58 -83 125
-141 140 -123 33 -1268 -43 -1639 -110 -30 -5 -98 -17 -150 -26 -195 -34 -380
-73 -580 -124 -25 -7 -52 -13 -60 -15 -31 -7 -278 -85 -360 -113 l-85 -30 -55
20 c-30 11 -75 29 -100 40 -25 10 -54 23 -65 28 -42 18 -160 73 -165 77 -15
13 336 223 372 223 4 0 31 11 60 24 67 30 168 67 283 105 84 27 114 36 255 75
30 9 116 30 190 46 74 17 153 35 175 40 22 5 94 19 160 30 66 11 140 25 165
30 25 5 72 12 105 16 33 4 69 8 80 11 24 4 135 18 265 32 297 32 303 33 825
51 154 6 296 13 317 16 46 7 115 65 139 118 36 79 16 177 -47 239 -51 51 -81
57 -268 57 -170 0 -715 -24 -811 -36 -27 -3 -113 -12 -190 -20 -147 -14 -289
-31 -340 -39 -16 -3 -59 -9 -95 -15 -222 -33 -448 -78 -640 -125 -58 -15 -123
-31 -145 -36 -22 -5 -51 -14 -65 -18 -14 -5 -59 -19 -100 -31 -112 -33 -175
-54 -280 -94 -138 -54 -141 -55 -289 -128 -149 -73 -273 -152 -396 -253 l-80
-64 -42 44 c-50 55 -84 122 -91 181 -4 36 1 56 27 108 116 235 517 468 1111
645 58 18 119 36 135 41 105 31 405 96 645 140 98 18 349 53 500 70 47 5 105
12 130 15 359 43 1150 65 1640 45z m-4270 -1666 c131 -114 358 -259 500 -319
33 -14 83 -36 112 -49 76 -34 256 -98 378 -136 58 -18 116 -36 130 -41 33 -11
331 -87 395 -101 28 -5 79 -16 115 -24 88 -19 349 -65 500 -89 25 -4 56 -9 70
-11 101 -16 451 -53 665 -69 354 -28 609 -37 980 -38 512 0 978 32 1440 98
162 24 248 36 270 40 124 23 248 46 340 65 77 15 260 60 360 87 595 160 1013
354 1308 607 33 28 61 46 66 40 14 -16 852 -2548 851 -2573 0 -67 -91 -182
-224 -284 -120 -93 -356 -238 -356 -218 0 6 12 41 26 78 122 324 107 660 -42
980 -145 308 -426 555 -754 662 -168 54 -241 64 -438 58 -98 -2 -186 -7 -197
-10 -11 -3 -38 -10 -60 -16 -99 -25 -153 -41 -195 -56 -25 -8 -54 -18 -64 -22
-11 -3 -63 -28 -115 -55 -310 -158 -676 -482 -1041 -918 -29 -36 -61 -71 -69
-77 -12 -10 -613 -13 -2932 -13 -1605 0 -2920 4 -2923 9 -4 6 764 2330 809
2449 7 20 16 15 95 -54z m-2672 -1670 c181 -37 294 -82 442 -179 248 -161 581
-488 899 -882 l82 -103 3192 0 c1756 0 3197 4 3203 8 5 4 41 45 79 92 446 547
838 897 1125 1002 140 52 249 73 370 73 309 0 586 -157 743 -421 113 -188 146
-443 87 -654 -53 -185 -154 -330 -345 -492 -66 -56 -120 -105 -120 -110 0 -5
49 -50 109 -101 147 -124 259 -275 331 -446 156 -374 -23 -831 -406 -1033
-139 -74 -342 -111 -489 -90 -77 11 -250 56 -300 78 -118 52 -239 128 -370
232 -134 106 -429 405 -609 617 -85 99 -167 195 -183 213 l-28 32 -3198 0
-3198 0 -74 -92 c-384 -479 -753 -823 -1029 -963 -63 -31 -183 -75 -246 -90
-16 -4 -41 -10 -55 -13 -34 -9 -308 -9 -346 0 -180 43 -315 118 -440 242 -237
238 -307 581 -185 907 52 139 139 250 306 392 72 60 131 113 133 117 1 4 -42
45 -98 91 -165 138 -314 354 -371 539 -33 106 -33 289 0 410 26 98 81 214 139
291 128 174 339 305 534 334 23 4 45 9 47 11 11 10 200 2 269 -12z"/>
<path d="M6540 10674 c-226 -44 -439 -275 -524 -568 -156 -537 81 -1120 504
-1237 186 -51 378 10 535 170 127 130 205 286 251 506 24 111 23 341 -1 455
-65 313 -234 549 -460 643 -59 25 -86 30 -175 33 -58 1 -116 0 -130 -2z"/>
<path d="M4545 10024 c-167 -42 -304 -160 -379 -325 -54 -118 -70 -202 -70
-369 0 -125 5 -172 22 -243 60 -242 168 -434 333 -592 132 -126 269 -197 432
-225 123 -21 261 11 365 82 127 87 215 227 260 413 25 105 22 313 -5 435 -88
387 -337 693 -653 805 -45 16 -263 30 -305 19z"/>
<path d="M8515 10026 c-5 -2 -37 -12 -70 -22 -212 -62 -430 -264 -554 -512
-72 -142 -131 -383 -131 -529 0 -53 24 -204 41 -263 33 -113 98 -218 184 -298
77 -72 149 -108 261 -130 77 -15 90 -15 180 1 443 79 799 592 771 1111 -15
260 -112 452 -286 567 -41 27 -82 49 -91 49 -9 0 -21 5 -28 12 -11 11 -251 23
-277 14z"/>
<path d="M59188 9410 l-3 -1279 -110 65 c-152 91 -434 227 -530 257 -185 58
-384 82 -609 74 -362 -12 -664 -123 -987 -363 -517 -384 -904 -1138 -1039
-2024 -43 -281 -54 -459 -54 -855 0 -409 12 -595 60 -925 90 -632 295 -1176
592 -1570 89 -118 284 -307 391 -379 229 -152 440 -223 712 -240 534 -33 922
140 1437 643 l142 139 0 -311 0 -312 695 0 695 0 0 4180 0 4180 -695 0 -695 0
-2 -1280z m-512 -2301 c145 -15 310 -57 422 -109 l92 -43 0 -1483 0 -1483 -67
-54 c-87 -70 -155 -113 -268 -169 -183 -92 -327 -128 -510 -128 -415 0 -696
216 -835 640 -146 448 -169 1298 -49 1819 63 274 180 526 322 692 152 177 369
289 617 318 108 12 153 12 276 0z"/>
<path d="M19272 6333 l3 -3998 1265 0 c1348 0 1379 1 1730 51 557 79 970 242
1367 540 660 496 1183 1445 1352 2455 145 860 87 1834 -155 2599 -198 624
-548 1198 -962 1577 -520 475 -1116 702 -2002 763 -83 6 -666 10 -1373 10
l-1227 0 2 -3997z m2574 2474 c377 -52 671 -197 938 -463 222 -222 358 -450
470 -786 124 -374 170 -703 171 -1223 0 -534 -52 -908 -176 -1272 -163 -481
-493 -869 -899 -1062 -273 -128 -456 -156 -1116 -168 l-374 -6 0 2502 0 2503
438 -5 c312 -4 469 -9 548 -20z"/>
<path d="M38580 6330 l0 -4000 788 2 787 3 3 1708 2 1707 1305 0 1305 0 0 775
0 775 -1305 0 -1305 0 0 740 0 740 1405 0 1405 0 0 775 0 775 -2195 0 -2195 0
0 -4000z"/>
<path d="M28340 8544 c-307 -36 -507 -81 -706 -159 -290 -114 -516 -266 -744
-501 -452 -467 -711 -1095 -805 -1954 -22 -199 -31 -747 -16 -965 52 -742 225
-1323 532 -1792 388 -590 916 -916 1636 -1009 155 -20 519 -23 673 -5 551 63
1001 271 1355 626 413 413 679 982 795 1697 71 438 85 1023 35 1477 -69 629
-246 1165 -521 1577 -380 570 -870 880 -1564 989 -101 16 -581 29 -670 19z
m415 -1359 c165 -29 296 -95 413 -208 69 -67 122 -144 188 -277 132 -262 199
-588 223 -1073 11 -222 -2 -735 -24 -925 -37 -330 -113 -575 -248 -805 -160
-270 -387 -397 -712 -397 -294 0 -521 112 -681 336 -56 78 -143 261 -183 383
-85 260 -131 659 -131 1135 0 484 45 839 144 1139 111 336 290 566 506 648
146 56 340 73 505 44z"/>
<path d="M46135 8544 c-16 -2 -73 -9 -125 -15 -521 -59 -978 -281 -1330 -645
-449 -465 -711 -1101 -806 -1954 -21 -197 -30 -735 -15 -960 56 -837 281
-1500 677 -1995 206 -257 443 -450 725 -589 651 -322 1577 -324 2234 -5 469
227 855 649 1098 1199 190 433 290 906 319 1523 33 697 -66 1387 -274 1912
-204 514 -548 947 -951 1197 -250 156 -544 259 -887 313 -100 16 -588 30 -665
19z m500 -1379 c229 -67 383 -202 504 -443 114 -226 172 -457 218 -862 24
-211 24 -840 0 -1075 -37 -361 -96 -583 -216 -811 -72 -137 -115 -197 -198
-274 -82 -76 -208 -146 -318 -176 -79 -22 -312 -30 -402 -14 -216 37 -407 163
-530 347 -194 293 -287 715 -300 1373 -14 696 82 1244 273 1560 180 298 396
416 744 406 109 -3 152 -9 225 -31z"/>
<path d="M52050 8536 c-422 -49 -769 -177 -1090 -404 -120 -84 -372 -334 -469
-464 -376 -507 -576 -1124 -632 -1953 -15 -218 -6 -749 16 -945 58 -532 164
-926 351 -1305 372 -758 988 -1204 1796 -1299 280 -33 561 -29 823 14 598 96
1064 374 1424 850 338 447 536 1003 617 1730 22 196 30 765 15 986 -50 717
-226 1311 -522 1764 -380 583 -879 906 -1562 1011 -170 27 -594 35 -767 15z
m507 -1352 c164 -34 273 -89 386 -194 81 -75 126 -139 191 -268 97 -193 140
-331 181 -587 42 -258 55 -442 55 -794 0 -697 -55 -1018 -231 -1361 -105 -204
-200 -306 -359 -390 -112 -57 -204 -81 -348 -87 -257 -12 -453 55 -619 210
-108 102 -192 237 -268 437 -65 169 -120 465 -145 779 -13 174 -13 673 1 838
23 283 72 551 136 743 111 334 304 566 538 645 135 46 342 58 482 29z"/>
<path d="M33977 8519 c-485 -56 -957 -331 -1266 -738 -338 -445 -553 -1036
-621 -1709 -34 -340 -32 -879 5 -1272 107 -1139 489 -1868 1150 -2198 248
-124 518 -182 847 -182 447 0 813 154 1204 507 l104 94 0 -153 c0 -164 -12
-326 -36 -478 -46 -297 -135 -493 -292 -641 -208 -197 -488 -282 -927 -283
-210 -1 -312 10 -506 50 -248 52 -623 180 -828 284 -55 27 -69 30 -156 30
l-95 0 2 -757 3 -756 117 -33 c354 -98 758 -170 1158 -206 194 -17 752 -17
895 0 580 69 980 216 1305 479 498 402 775 1072 840 2031 6 101 10 1125 10
2963 l0 2809 -723 0 -723 0 -23 -122 c-13 -68 -26 -126 -28 -131 -3 -4 -21 6
-41 21 -82 65 -234 157 -347 212 -313 151 -695 218 -1028 179z m882 -1409
c188 -17 343 -54 474 -113 l67 -30 0 -1368 0 -1369 -73 -54 c-278 -205 -553
-291 -857 -265 -341 29 -592 207 -720 507 -111 263 -155 590 -147 1092 6 409
39 617 138 880 164 437 467 682 889 720 47 4 92 8 100 9 8 0 66 -4 129 -9z"/>
</g>
</svg>
